<svg id="visual" viewBox="0 0 200 600" width="200" height="600" xmlns="http://www.w3.org/2000/svg" xmlns:xlink="http://www.w3.org/1999/xlink" version="1.1"><rect x="0" y="0" width="200" height="600" fill="#c78362"></rect><path d="M107 600L107.5 575C108 550 109 500 108.8 450C108.7 400 107.3 350 107.2 300C107 250 108 200 109.5 150C111 100 113 50 114 25L115 0L200 0L200 25C200 50 200 100 200 150C200 200 200 250 200 300C200 350 200 400 200 450C200 500 200 550 200 575L200 600Z" fill="#36d731"></path><path d="M130 600L128.7 575C127.3 550 124.7 500 123.3 450C122 400 122 350 123.8 300C125.7 250 129.3 200 131 150C132.7 100 132.3 50 132.2 25L132 0L200 0L200 25C200 50 200 100 200 150C200 200 200 250 200 300C200 350 200 400 200 450C200 500 200 550 200 575L200 600Z" fill="#00d1bc"></path><path d="M149 600L147.2 575C145.3 550 141.7 500 141 450C140.3 400 142.7 350 144.3 300C146 250 147 200 146.3 150C145.7 100 143.3 50 142.2 25L141 0L200 0L200 25C200 50 200 100 200 150C200 200 200 250 200 300C200 350 200 400 200 450C200 500 200 550 200 575L200 600Z" fill="#00bae5"></path><path d="M160 600L160.3 575C160.7 550 161.3 500 161.3 450C161.3 400 160.7 350 159.5 300C158.3 250 156.7 200 156.5 150C156.3 100 157.7 50 158.3 25L159 0L200 0L200 25C200 50 200 100 200 150C200 200 200 250 200 300C200 350 200 400 200 450C200 500 200 550 200 575L200 600Z" fill="#2e9de5"></path><path d="M177 600L176.5 575C176 550 175 500 174.7 450C174.3 400 174.7 350 174.8 300C175 250 175 200 175.5 150C176 100 177 50 177.5 25L178 0L200 0L200 25C200 50 200 100 200 150C200 200 200 250 200 300C200 350 200 400 200 450C200 500 200 550 200 575L200 600Z" fill="#6b7bd2"></path></svg>